<?xml version="1.0" encoding="iso-8859-1"?>
<!-- Generator: Adobe Illustrator 16.0.0, SVG Export Plug-In . SVG Version: 6.00 Build 0)  -->
<!DOCTYPE svg PUBLIC "-//W3C//DTD SVG 1.1//EN" "http://www.w3.org/Graphics/SVG/1.1/DTD/svg11.dtd">
<svg version="1.1" id="Capa_1" xmlns="http://www.w3.org/2000/svg" xmlns:xlink="http://www.w3.org/1999/xlink" x="0px" y="0px"
	 width="950px" height="950.001px" viewBox="0 0 950 950.001" style="enable-background:new 0 0 950 950.001;" xml:space="preserve"
	>
<g>
	<g>
		<path d="M495.189,516.733H95.787c-13.327,0-24.131-10.805-24.131-24.132V88.116c0-13.328,10.804-24.132,24.131-24.132h509.826
			c13.328,0,24.133,10.804,24.133,24.132v282.72h63.984V24.131C693.73,10.804,682.926,0,669.599,0H31.803
			C18.475,0,7.672,10.804,7.672,24.131v637.795c0,13.328,10.804,24.131,24.131,24.131h463.386V516.733z"/>
		<path d="M319.235,264.566L118.259,465.542c-4.434,4.434-1.294,12.016,4.977,12.016h371.953v-51.255
			c0-10.13,2.742-19.626,7.505-27.807l-133.93-133.93C355.087,250.889,332.913,250.889,319.235,264.566z"/>
		<circle cx="498.466" cy="185.112" r="58.653"/>
		<path d="M928.638,715.014h-58.655V427.981c0-17.606-14.271-31.879-31.878-31.879H693.729h-63.984h-79.09
			c-13.635,0-25.154,9.038-28.907,21.448c-0.839,2.771-1.294,5.708-1.294,8.753v51.255v39.176v169.323v28.957h-58.654
			c-12.446,0-18.411,15.284-9.255,23.716L672.281,941.05c6.481,5.967,14.709,8.951,22.938,8.951c8.228,0,16.455-2.984,22.937-8.951
			L937.892,738.73C947.049,730.299,941.084,715.014,928.638,715.014z"/>
	</g>
</g>
<g>
</g>
<g>
</g>
<g>
</g>
<g>
</g>
<g>
</g>
<g>
</g>
<g>
</g>
<g>
</g>
<g>
</g>
<g>
</g>
<g>
</g>
<g>
</g>
<g>
</g>
<g>
</g>
<g>
</g>
</svg>
